<svg width="25.000122" height="25.012283" viewBox="0 0 25.0001 25.0123" fill="none" xmlns="http://www.w3.org/2000/svg" xmlns:xlink="http://www.w3.org/1999/xlink">
	<desc>
			Created with Pixso.
	</desc>
	<defs/>
	<path d="M17.4395 22.4455L22.4395 17.4455L23.5001 18.5061L22.4395 19.5668L17.4395 14.5668L19.5608 12.4455L24.5608 17.4455Q24.6129 17.4976 24.6596 17.5546Q24.7064 17.6115 24.7473 17.6728Q24.7883 17.7341 24.823 17.799Q24.8577 17.864 24.8859 17.9321Q24.9141 18.0002 24.9355 18.0707Q24.9569 18.1412 24.9713 18.2135Q24.9857 18.2858 24.9929 18.3591Q25.0001 18.4325 25.0001 18.5061Q25.0001 18.5798 24.9929 18.6532Q24.9857 18.7265 24.9713 18.7988Q24.9569 18.8711 24.9355 18.9416Q24.9141 19.0121 24.8859 19.0802Q24.8577 19.1482 24.823 19.2132Q24.7883 19.2782 24.7473 19.3395Q24.7064 19.4008 24.6596 19.4577Q24.6129 19.5147 24.5608 19.5668L19.5608 24.5668L17.4395 22.4455ZM19.5608 24.5385L19.5608 24.5668C18.9668 25.1608 18.0334 25.1608 17.4395 24.5668C16.8455 23.9728 16.8455 23.0395 17.4395 22.4455L17.4677 22.4455L19.5608 24.5385ZM17.4677 14.5668L17.4395 14.5668C16.8455 13.9728 16.8455 13.0395 17.4395 12.4455C18.0334 11.8515 18.9668 11.8515 19.5608 12.4455L19.5608 12.4738L17.4677 14.5668Z" fill="#707C87" fill-opacity="1.000000" fill-rule="evenodd"/>
	<path d="M23.5001 18.5061C20.5667 18.5061 10.1575 18.5061 5.16673 18.5061L1.50006 18.5061" stroke="#707C87" stroke-opacity="1.000000" stroke-width="3.000000" stroke-linejoin="round" stroke-linecap="round"/>
	<path d="M7.56066 2.5668L2.56066 7.5668L1.5 6.50614L2.56066 5.44548L7.56066 10.4455L5.43934 12.5668L0.43934 7.5668Q0.387233 7.5147 0.340484 7.45773Q0.293736 7.40077 0.252795 7.3395Q0.211855 7.27823 0.177118 7.21324Q0.142381 7.14825 0.114181 7.08017Q0.0859807 7.01209 0.0645896 6.94157Q0.0431984 6.87105 0.0288222 6.79878Q0.0144459 6.7265 0.00722303 6.65317Q1.22205e-07 6.57983 1.22205e-07 6.50614Q1.22205e-07 6.43245 0.00722303 6.35912Q0.0144459 6.28578 0.0288222 6.21351Q0.0431984 6.14123 0.0645896 6.07071Q0.0859807 6.0002 0.114181 5.93212Q0.142381 5.86403 0.177118 5.79905Q0.211855 5.73406 0.252795 5.67279Q0.293736 5.61151 0.340484 5.55455Q0.387233 5.49759 0.43934 5.44548L5.43934 0.44548L7.56066 2.5668ZM5.43934 0.473763L5.43934 0.44548C6.03331 -0.148491 6.96669 -0.148491 7.56066 0.44548C8.15463 1.03945 8.15463 1.97283 7.56066 2.5668L7.53238 2.5668L5.43934 0.473763ZM7.53238 10.4455L7.56066 10.4455C8.15463 11.0395 8.15463 11.9728 7.56066 12.5668C6.96669 13.1608 6.03331 13.1608 5.43934 12.5668L5.43934 12.5385L7.53238 10.4455Z" fill="#707C87" fill-opacity="1.000000" fill-rule="evenodd"/>
	<path d="M1.50006 6.5062C4.43339 6.5062 14.8427 6.5062 19.8334 6.5062L23.5001 6.5062" stroke="#707C87" stroke-opacity="1.000000" stroke-width="3.000000" stroke-linejoin="round" stroke-linecap="round"/>
</svg>
