<svg width="15.937836" height="12.008057" viewBox="0 0 15.9378 12.0081" fill="none" xmlns="http://www.w3.org/2000/svg" xmlns:xlink="http://www.w3.org/1999/xlink">
	<desc>
			Created with Pixso.
	</desc>
	<defs/>
	<path id="Vector 17" d="M9.82825 10.3472L14.1838 5.3472L14.9378 6.00403L14.1838 6.66086L9.82825 1.66086L11.3363 0.347198L15.6919 5.3472Q15.7509 5.41492 15.7968 5.49208Q15.8428 5.56923 15.8743 5.65334Q15.9058 5.73745 15.9218 5.82583Q15.9378 5.91421 15.9378 6.00403Q15.9378 6.09385 15.9218 6.18222Q15.9058 6.2706 15.8743 6.35471Q15.8428 6.43883 15.7968 6.51598Q15.7509 6.59313 15.6919 6.66086L11.3363 11.6609L9.82825 10.3472ZM11.3344 11.6327L11.3363 11.6609C10.9685 12.0831 10.3477 12.1259 9.92543 11.7581C9.50317 11.3902 9.46042 10.7694 9.82825 10.3472L9.85646 10.3452L11.3344 11.6327ZM9.85646 1.66281L9.82825 1.66086C9.46042 1.23862 9.50317 0.617828 9.92543 0.25C10.3477 -0.117828 10.9685 -0.0750732 11.3363 0.347198L11.3344 0.375397L9.85646 1.66281Z" fill="#C1C2CA" fill-opacity="1.000000" fill-rule="evenodd"/>
	<path id="Vector 18" d="M14.9378 6.00403C13.0794 6.00403 6.48477 6.00403 3.32297 6.00403L1 6.00403" stroke="#C1C2CA" stroke-opacity="1.000000" stroke-width="2.000000" stroke-linejoin="round" stroke-linecap="round"/>
</svg>
