<svg width="16.000000" height="15.999115" viewBox="0 0 16 15.9991" fill="none" xmlns="http://www.w3.org/2000/svg" xmlns:xlink="http://www.w3.org/1999/xlink">
	<desc>
			Created with Pixso.
	</desc>
	<defs/>
	<path id="Vector" d="M15.9991 11.9282L15.9991 15.0712C15.9993 15.2962 15.9139 15.5129 15.7605 15.6775C15.6072 15.8422 15.397 15.9425 15.1725 15.9582C14.7841 15.9849 14.4668 15.9991 14.2214 15.9991C6.3667 15.9991 0 9.63235 0 1.77768C0 1.53236 0.0133057 1.21504 0.0408936 0.826614C0.0566406 0.602142 0.156982 0.391983 0.321533 0.238571C0.486206 0.0851593 0.702881 -0.000106812 0.927979 0L4.07092 0C4.18115 -0.000106812 4.28748 0.0407562 4.36926 0.114685C4.45105 0.188599 4.50244 0.290283 4.51355 0.399979C4.53394 0.604416 4.55261 0.767075 4.57043 0.89061C4.74707 2.12337 5.10901 3.32233 5.64417 4.44687C5.72852 4.62463 5.67346 4.83707 5.51343 4.95084L3.59534 6.32143C4.76819 9.05412 6.94592 11.2319 9.67859 12.4046L11.0474 10.4901C11.1034 10.4119 11.1849 10.3558 11.2781 10.3316C11.3711 10.3074 11.4697 10.3166 11.5566 10.3577C12.6812 10.8917 13.8798 11.2528 15.1121 11.4287C15.2356 11.4465 15.3983 11.466 15.601 11.4856C15.7104 11.4968 15.8119 11.5483 15.8856 11.6301C15.9594 11.7119 16.0001 11.8181 16 11.9282L15.9991 11.9282Z" fill="#1F1E25" fill-opacity="1.000000" fill-rule="nonzero"/>
</svg>
