<svg width="16.000000" height="16.000000" viewBox="0 0 16 16" fill="none" xmlns="http://www.w3.org/2000/svg" xmlns:xlink="http://www.w3.org/1999/xlink">
	<desc>
			Created with Pixso.
	</desc>
	<defs/>
	<path id="Vector" d="M8 0C10.1736 0 10.4448 0.00799561 11.2976 0.0480042C12.1496 0.0879974 12.7296 0.221603 13.24 0.419998C13.768 0.623199 14.2128 0.898407 14.6576 1.34241C15.0644 1.74231 15.3792 2.22607 15.58 2.75999C15.7776 3.26959 15.912 3.8504 15.952 4.70239C15.9896 5.55521 16 5.8264 16 8C16 10.1736 15.992 10.4448 15.952 11.2976C15.912 12.1496 15.7776 12.7296 15.58 13.24C15.3798 13.7742 15.0649 14.2581 14.6576 14.6576C14.2576 15.0643 13.7739 15.379 13.24 15.58C12.7304 15.7776 12.1496 15.912 11.2976 15.952C10.4448 15.9896 10.1736 16 8 16C5.82642 16 5.55518 15.992 4.70239 15.952C3.8504 15.912 3.27039 15.7776 2.76001 15.58C2.22589 15.3796 1.742 15.0648 1.34241 14.6576C0.935547 14.2578 0.620728 13.774 0.419983 13.24C0.221619 12.7304 0.0880127 12.1496 0.0479736 11.2976C0.010376 10.4448 0 10.1736 0 8C0 5.8264 0.00799561 5.55521 0.0479736 4.70239C0.0880127 3.84959 0.221619 3.2704 0.419983 2.75999C0.620178 2.22574 0.935059 1.74185 1.34241 1.34241C1.74213 0.935379 2.22595 0.62059 2.76001 0.419998C3.27039 0.221603 3.84961 0.0879974 4.70239 0.0480042C5.55518 0.0104065 5.82642 0 8 0ZM8 4C6.93915 4 5.92169 4.42143 5.17157 5.17157C4.42145 5.92172 4 6.93913 4 8C4 9.06087 4.42145 10.0783 5.17157 10.8284C5.92169 11.5786 6.93915 12 8 12C9.06085 12 10.0783 11.5786 10.8284 10.8284C11.5786 10.0783 12 9.06087 12 8C12 6.93913 11.5786 5.92172 10.8284 5.17157C10.0783 4.42143 9.06085 4 8 4ZM13.2 3.8C13.2 3.53479 13.0947 3.28043 12.9071 3.0929C12.7195 2.90535 12.4652 2.8 12.2 2.8C11.9348 2.8 11.6804 2.90535 11.4929 3.0929C11.3054 3.28043 11.2 3.53479 11.2 3.8C11.2 4.06522 11.3054 4.31956 11.4929 4.50711C11.6804 4.69464 11.9348 4.8 12.2 4.8C12.4652 4.8 12.7195 4.69464 12.9071 4.50711C13.0947 4.31956 13.2 4.06522 13.2 3.8ZM8 5.60001C8.63654 5.60001 9.24695 5.85286 9.69708 6.30295C10.1472 6.75304 10.4 7.36348 10.4 8C10.4 8.63652 10.1472 9.24696 9.69708 9.69705C9.24695 10.1471 8.63654 10.4 8 10.4C7.36346 10.4 6.75305 10.1471 6.30292 9.69705C5.85284 9.24696 5.59998 8.63652 5.59998 8C5.59998 7.36348 5.85284 6.75304 6.30292 6.30295C6.75305 5.85286 7.36346 5.60001 8 5.60001Z" fill="#1F1E25" fill-opacity="1.000000" fill-rule="nonzero"/>
</svg>
