<svg width="20.000000" height="22.000000" viewBox="0 0 20 22" fill="none" xmlns="http://www.w3.org/2000/svg" xmlns:xlink="http://www.w3.org/1999/xlink">
	<desc>
			Created with Pixso.
	</desc>
	<defs/>
	<path d="M2.22217 14.3L4.44446 14.3L4.44446 19.8L17.7778 19.8L17.7778 2.20001L4.44446 2.20001L4.44446 7.70001L2.22217 7.70001L2.22217 1.09998C2.22217 0.808289 2.33923 0.528442 2.54761 0.322205C2.75598 0.115906 3.0387 0 3.33337 0L18.8889 0C19.1836 0 19.4662 0.115906 19.6746 0.322205C19.8829 0.528442 20 0.808289 20 1.09998L20 20.9C20 21.1917 19.8829 21.4716 19.6746 21.6778C19.4662 21.8841 19.1836 22 18.8889 22L3.33337 22C3.0387 22 2.75598 21.8841 2.54761 21.6778C2.33923 21.4716 2.22217 21.1917 2.22217 20.9L2.22217 14.3ZM8.88892 9.90002L8.88892 6.59998L14.4445 11L8.88892 15.4L8.88892 12.1L0 12.1L0 9.90002L8.88892 9.90002Z" fill="#1F1E25" fill-opacity="1.000000" fill-rule="nonzero"/>
</svg>
