<svg width="10.000000" height="16.000000" viewBox="0 0 10 16" fill="none" xmlns="http://www.w3.org/2000/svg" xmlns:xlink="http://www.w3.org/1999/xlink">
	<desc>
			Created with Pixso.
	</desc>
	<defs/>
	<path id="phone" d="M8.83728 0L1.16272 0C0.523315 0 0 0.485947 0 1.08069L0 14.9189C0 15.5136 0.523315 16 1.16272 16L8.83728 16C9.47668 16 10 15.5145 10 14.9193L10 1.08069C10 0.485947 9.47668 0 8.83728 0ZM3.77234 0.778976L6.22766 0.778976C6.3053 0.778976 6.36829 0.837479 6.36829 0.910172C6.36829 0.982407 6.3053 1.04091 6.22766 1.04091L3.77234 1.04091C3.6947 1.04091 3.63171 0.982407 3.63171 0.910172C3.63171 0.837479 3.6947 0.778976 3.77234 0.778976ZM5 15.4597C4.67883 15.4597 4.4187 15.2178 4.4187 14.9189C4.4187 14.6199 4.67883 14.3785 5 14.3785C5.32117 14.3785 5.5813 14.6199 5.5813 14.9189C5.5813 15.2178 5.32117 15.4597 5 15.4597ZM9.19092 14L0.809082 14L0.809082 1.71382L9.19092 1.71382L9.19092 14Z" fill="#1F1E25" fill-opacity="1.000000" fill-rule="evenodd"/>
</svg>
