<svg width="16.000000" height="13.000000" viewBox="0 0 16 13" fill="none" xmlns="http://www.w3.org/2000/svg" xmlns:xlink="http://www.w3.org/1999/xlink">
	<desc>
			Created with Pixso.
	</desc>
	<defs/>
	<path id="Vector" d="M15.9992 1.54324C15.4 1.80812 14.7645 1.98209 14.1138 2.05937C14.7996 1.64948 15.3129 1.00438 15.5581 0.244293C14.9144 0.627075 14.2088 0.89534 13.4733 1.04045C12.9793 0.512222 12.3245 0.161911 11.6107 0.0439606C10.8969 -0.0740051 10.164 0.0470123 9.52612 0.388199C8.88824 0.72937 8.38098 1.27159 8.08331 1.93057C7.78558 2.58954 7.71411 3.32834 7.87988 4.0321C6.57465 3.96672 5.29773 3.62776 4.13208 3.03723C2.96643 2.4467 1.93811 1.6178 1.11383 0.604324C0.822021 1.10512 0.668701 1.67441 0.669556 2.25389C0.669556 3.39125 1.24884 4.39606 2.12952 4.98434C1.60834 4.96796 1.09863 4.8273 0.642883 4.57411L0.642883 4.6149C0.643005 5.37239 0.905334 6.10651 1.38525 6.69279C1.86523 7.27907 2.53333 7.68144 3.27631 7.83167C2.79248 7.96269 2.28516 7.98201 1.79279 7.88815C2.00226 8.54016 2.41052 9.11038 2.96045 9.51898C3.51031 9.92757 4.17438 10.1541 4.8595 10.1668C4.17853 10.7012 3.39886 11.0963 2.56506 11.3294C1.7312 11.5625 0.859619 11.6291 0 11.5253C1.50055 12.4897 3.24731 13.0017 5.03137 13C11.0699 13 14.3721 8.0011 14.3721 3.66579C14.3721 3.5246 14.3681 3.38185 14.3619 3.24222C15.0046 2.778 15.5593 2.20293 16 1.54402L15.9992 1.54324Z" fill="#1F1E25" fill-opacity="1.000000" fill-rule="nonzero"/>
</svg>
