<svg width="16.000000" height="13.000000" viewBox="0 0 16 13" fill="none" xmlns="http://www.w3.org/2000/svg" xmlns:xlink="http://www.w3.org/1999/xlink">
	<desc>
			Created with Pixso.
	</desc>
	<defs/>
	<path id="Vector" d="M15.6344 2.02963C16 3.47749 16 6.5 16 6.5C16 6.5 16 9.52251 15.6344 10.9704C15.4312 11.7707 14.8368 12.4004 14.084 12.6133C12.7168 13 8 13 8 13C8 13 3.28558 13 1.91602 12.6133C1.15997 12.3971 0.566406 11.7682 0.365601 10.9704C0 9.52251 0 6.5 0 6.5C0 6.5 0 3.47749 0.365601 2.02963C0.568787 1.22931 1.16321 0.599625 1.91602 0.386749C3.28558 0 8 0 8 0C8 0 12.7168 0 14.084 0.386749C14.84 0.602875 15.4336 1.23175 15.6344 2.02963ZM6.40002 9.34375L11.2 6.5L6.40002 3.65625L6.40002 9.34375Z" fill="#1F1E25" fill-opacity="1.000000" fill-rule="nonzero"/>
</svg>
